<?xml version="1.0" encoding="UTF-8"?>
<svg id="_Слой_2" data-name="Слой 2" xmlns="http://www.w3.org/2000/svg" viewBox="0 0 186.17753 166.12681">
  <defs>
    <style>
      .cls-1 {
        fill: #fff;
      }

      .cls-2 {
        opacity: .5;
      }
    </style>
  </defs>
  <g id="_Слой_1-2" data-name="Слой 1">
    <g id="gatti" class="cls-2">
      <g>
        <path class="cls-1" d="m29.22397,89.45809c1.67646-.84673,2.91626-1.55652,4.22034-2.1166,4.80567-2.06392,9.6651-4.00569,14.43668-6.1444,2.11818-.94942,4.11314-2.19811,6.0857-3.43582.75739-.47524,1.22077-1.40325,1.95591-1.93399.78344-.56557,1.68576-1.09203,2.61287-1.31139,4.10842-.97202,8.24454-1.82703,12.37035-2.72578.67672-.14743,1.34969-.31307,2.0283-.45084,1.57594-.31996,2.84551-1.05142,4.04255-2.20251,3.41727-3.2859,7.73149-4.91135,12.24166-6.04263,5.90251-1.48052,11.94223-1.93806,17.99129-2.28386,3.14948-.18002,6.30177-.31189,9.62143-.47374.4315-1.16852.87757-2.37639,1.38401-3.74781-.60677-.11864-1.06996-.2589-1.54102-.29398-9.77284-.72765-19.5528-1.02018-29.31874-.0004-3.69375.3857-7.36128,1.05079-11.02589,1.67562-1.85983.31711-2.02183.46926-2.68791-1.35227-1.81464-4.96236-3.53971-9.96083-5.15266-14.99231-.94136-2.93642-1.59777-5.96408-2.38588-8.94978-.43636-1.65305-.64105-1.83509-2.32727-1.81332-1.30417.01683-2.60737.10815-4.1507.17706,4.82274,3.81047,6.48621,9.19339,8.00173,14.59541,1.23853,4.41468,2.19534,8.90839,3.3031,13.47425-5.8526,2.67373-11.47502,5.40485-15.24431,10.7722l-.37067-.13545c-.38658-2.05206-.88868-4.09023-1.13745-6.15884-.6702-5.57186-1.34247-11.14775-1.79826-16.73961-.29795-3.65566.04501-7.311,1.12247-10.86155,1.1054-3.64265,3.69695-5.58069,7.2714-6.4018.42553-.09775.93077-.25399,1.30116-.11747,1.83679.67704,3.25083-.26045,4.77658-1.02669,6.95291-3.49174,14.22796-5.88242,22.10059-5.82874,5.3042.03616,10.20448,1.47281,14.43224,4.84216,2.05532,1.63806,3.79825,3.5475,4.91924,5.92275,3.17353,6.72419,6.27809,13.48092,9.40758,20.22589.28902.62294.56186,1.25338.91287,2.03838,5.51574-9.42386,13.85785-14.37741,24.26614-16.50967.0903.33619.21256.55708.19715.76788-.44445,6.06462.7623,11.92737,2.11902,17.77863.95469,4.11736,1.91631,8.24264,1.70704,12.5194-.11042,2.25727-.41466,4.4776-1.45368,6.65574-1.52344-.54651-2.58979-1.54899-3.41597-2.70782-1.86552-2.61656-3.60466-5.32346-5.38696-7.99911-.9088-1.36443-1.74747-2.77987-2.7282-4.08969-.3277-.43771-.99748-.61933-1.5109-.91801-.24434.48022-.62866.9389-.70646,1.44474-.22644,1.47192-.33024,2.96271-.63536,4.47346-1.39118-2.05316-1.60036-4.48501-2.20742-6.77232-.62643-2.36044-1.11664-4.75704-1.96151-7.12181-.14918.83169-.26455,1.67112-.45315,2.49378-1.00617,4.38979-3.12986,7.56066-7.85634,8.94215-9.68874,2.83187-18.15297,7.82613-24.87842,15.50423-2.73754,3.12529-6.28577,5.02666-10.01981,6.61687-6.06766,2.58402-12.41314,4.28694-18.9365,5.06817-5.5008.65878-11.06026,1.04166-16.59918,1.11017-5.62269.06953-11.19525-.7617-16.57821-2.53739-.64207-.2118-1.26517-.481-2.36058-.90152Zm45.13058-51.15318c1.49938-5.89635,4.91998-8.58805,10.82647-8.43337,5.56978.14587,10.43882,2.16131,14.54497,5.95917.38279.35405.76544.70824,1.41366,1.30804-.13327-.60593-.1552-.8496-.23976-1.06912-2.94288-7.63823-12.53379-12.8711-20.50591-11.15524-7.42452,1.598-8.62368,8.15269-6.03944,13.39052Zm-20.16859,9.05457c.10094-.02115.20187-.0423.30281-.06345.50538-2.07031.85602-4.19591,1.56919-6.19194.49571-1.38714,1.34603-2.71721,2.30058-3.85176,1.01894-1.21103,2.37659-1.04087,3.39738.19365.46582.56335.81984,1.21914,1.22461,1.83299l.42216-.13361c-.3394-1.34826-.57166-2.7358-1.04767-4.03399-.49797-1.35835-1.50276-2.523-2.99937-2.55699-1.3162-.02989-1.9517,1.26022-2.51231,2.31278-1.41144,2.64992-2.07267,5.53046-2.40069,8.48912-.14715,1.32757-.17481,2.66838-.25669,4.00318Z"/>
        <path class="cls-1" d="m154.46319,128.22531c1.31157-1.74844,2.63809-3.4859,3.93226-5.24713,7.62343-10.37442,12.65077-21.9065,15.50507-34.44165,1.6586-7.28375,2.63166-14.64366,2.52494-22.0991-.19988-13.96888-3.2134-27.21624-10.93684-39.0793-4.31094-6.62152-9.85365-12.07069-16.54899-16.30254-3.14837-1.98997-6.74965-2.64254-10.32646-3.3202-7.50908-1.42266-15.05114-1.39029-22.60925-.44253-.12032.01509-.24753-.02498-.38029-.13982,6.87473-2.13788,13.90332-2.55594,21.06074-1.80701-6.63109-2.58164-13.57248-3.71349-20.62276-4.36409.02951-.19519.05903-.39038.08849-.58557,2.25247.24519,4.51272.43456,6.75594.74612,6.57211.91278,12.79552,2.9984,18.99811,5.32107,4.55574,1.70599,9.02414,3.4676,13.12502,6.09734,14.28907,9.16316,23.40087,22.08071,27.90485,38.36779,1.73502,6.2742,2.74628,12.64432,3.0867,19.1485,1.16928,22.3397-4.19562,42.96189-16.25331,61.79114-6.9629,10.87318-16.01767,19.5984-27.47127,25.70373-6.10892,3.25638-12.63616,5.24259-19.46648,6.32479-7.10838,1.12626-14.24087,1.86286-21.4464,1.91245-4.91818.03384-9.84102.42484-14.75161.28893-7.00601-.19392-13.85665-1.57409-20.59163-3.49995-.09895-.02831-.16385-.17585-.24462-.26775.25192.00893.51685-.03025.75388.03377,6.45623,1.74354,13.02931,2.77207,19.69583,3.22423,1.3842.09388,2.77159.1549,4.15856.18874,1.2915.03155,2.58443.00678,3.98722.00678-6.39466-.73739-12.68579-1.186-18.87257-2.24429-8.28826-1.41778-15.6816-3.79767-18.0338-5.27596,6.95314,2.29422,13.97687,4.28862,21.66576,5.282-7.16547-2.23536-13.92969-4.32845-20.68035-6.4643-1.55485-.49194-3.09341-1.06143-4.5883-1.71268-9.6904-4.22165-18.34859-10.01757-25.94179-17.35722-14.91273-14.4148-23.8896-31.70929-25.52322-52.60915-.59752-7.64425.29372-15.09389,2.25171-22.43497,2.5915-9.71623,7.8593-18.06628,13.67469-26.11461.31164-.4313.50783-.94601.75774-1.42189.64887-.83189,1.19657-1.77366,1.96241-2.47847,6.90802-6.3578,13.85241-12.67329,23.19222-15.37677.50269-.1455.93114-.54738,1.65051-.98635-.53938-.08952-.66552-.14062-.78186-.12394-.30873.04427-.61492.11065-.91921.18076-7.88456,1.81664-14.41191,6.11542-20.36647,11.35346-2.73419,2.40516-5.19661,5.11924-7.78226,7.69326.99153-1.35103,1.87553-2.79895,2.99166-4.0377,8.60249-9.54757,19.06465-16.14085,31.43709-19.70045,1.17335-.33758,2.29415-.96948,3.3384-1.62544,5.36351-3.3691,10.69186-6.79426,16.04269-10.18371.26219-.16609.62028-.18077,1.01797-.09097-5.62829,3.24957-11.12368,6.65498-16.61639,10.66904,6.71482-1.20624,13.06021-2.34611,19.4056-3.48599.01212.07315.02419.1463.03627.21946-6.44804,2.45187-12.89608,4.90373-19.34413,7.35559.04589.19344.09182.38687.13776.5803,1.3397-.08436,2.68018-.15818,4.019-.25495,5.16566-.37341,10.05391.36158,14.30485,3.60062.77506.59059,1.49314,1.25603,2.23758,1.88693-.12712.16398-.25424.32796-.38136.49194-1.51381-.66709-3.06852-1.25531-4.53377-2.01597-4.5074-2.33997-9.33185-3.40582-14.35332-3.34759-1.96299.02277-3.91779.75042-5.87023,1.39968.51509.08385,1.03018.16769,1.54522.25154-5.85542-.2614-9.7776,2.9669-13.13617,7.2193.29296.25143.61593.52375.92998.80602.02993.0269.00402.11593.00453.17612-.01906.05656-.02475.15139-.06018.16424-3.95239,1.43348-6.21952,4.67233-8.59218,7.85931-5.0808,6.82451-8.95059,14.2449-11.47146,22.37616-2.51321,8.10661-3.40575,16.39591-2.52984,24.81658,1.0571,10.16288,4.35313,19.62329,9.87447,28.22322,2.16384,3.37036,4.78516,6.44654,7.18194,9.66877.16954.22793.20474.55575.30244.83711l.0352-.0298c-.24369-.15921-.53489-.27526-.72413-.48384-6.11549-6.74133-10.68464-14.40219-13.79801-22.96076-4.15949-11.43433-4.85876-23.09892-2.35602-34.95095,2.12542-10.06522,6.67688-19.05081,12.65309-27.35497,1.01133-1.40526,2.06147-2.78263,3.09364-4.1729-.0902-.11709-.18046-.23417-.27066-.35126-1.80205,1.06856-3.64835,2.06969-5.39785,3.21826-5.41974,3.55807-10.41232,7.55177-13.55032,13.43395-6.62482,12.41818-9.15096,25.61134-7.81455,39.61771.77458,8.1179,2.94464,15.83478,6.35786,23.17862,7.78707,16.75466,20.00593,29.53628,35.71565,39.05786,10.71957,6.49708,22.40127,10.5253,34.63215,13.02822,5.07744,1.03902,10.21627,1.56428,15.40182,1.04982,7.08373-.70272,14.07166-1.982,20.99084-3.64754,7.625-1.83541,14.97879-4.32907,21.64582-8.59634,11.1439-7.13269,19.58194-16.74286,26.1071-28.16146,8.36491-14.63786,12.9262-30.39476,13.86964-47.18853.31826-5.66617.14951-11.33798-.61214-16.99776-1.09998-8.17346-3.23482-16.02273-6.91655-23.40048-4.33985-8.69651-10.18792-16.06178-19.01874-20.6472-.38793-.20142-.81207-.33303-1.21938-.49717.10394.36792.2912.53424.48877.68715,7.93859,6.14244,13.78777,13.93258,17.76976,23.08166,4.41285,10.13907,6.11183,20.84314,5.97685,31.85904-.09062,7.39947-1.08181,14.68669-2.84754,21.87119-3.05557,12.43255-8.30052,23.84091-16.02155,34.0727-1.08379,1.43622-2.41877,2.68292-3.6375,4.01735l-.06458-.05933ZM6.62529,59.59364c-8.09187,23.21476-.96505,51.12084,15.18964,68.53673C6.56356,107.53222.33465,84.94454,6.62529,59.59364Zm14.31195-23.74684c2.05407-1.5303,4.07176-3.19645,6.25184-4.61263,2.25583-1.46536,4.66921-2.68818,7.00305-4.01109-4.34309.09524-10.62929,4.19283-13.25489,8.62373Zm12.63021-11.61756h4.13867c.50306-.47287,1.19269-1.10077,1.85858-1.7529.66145-.64775,1.29908-1.31989,2.2367-2.27686-3.87264.85351-5.47712,1.66553-8.23395,4.02977Z"/>
        <path class="cls-1" d="m64.17011,104.76418c.24799.06403.40402.05593.47582.12973,5.92555,6.08814,13.45683,8.98998,21.54026,10.64812,12.23505,2.50978,24.21595,1.59094,35.83964-3.12847,3.71494-1.50834,7.13901-3.4798,9.95204-6.3987.30013-.31141.63943-.58506,1.31402-.72391-.53401,1.65533-.97962,3.34568-1.61859,4.95945-1.9103,4.82425-5.57912,8.01053-10.01398,10.41506-5.57893,3.02477-11.64937,4.31995-17.89785,4.90478-7.03955.65887-13.99686.08539-20.78115-1.89092-6.02107-1.75399-11.52586-4.45377-15.40932-9.67155-2.03464-2.73375-2.94321-5.86842-3.40089-9.24359Zm36.62979,19.9741c.41684-.56932.73408-1.00259,1.09504-1.49558.35693.52454.62815.92307.98156,1.44236.40014-.60125.72885-1.09515,1.14203-1.71602.39301.58019.69851,1.03113,1.08366,1.59967.41008-.60006.74985-1.09717,1.13075-1.65443.37974.41787.72256.79504,1.10924,1.22049.40166-.60671.70905-1.071,1.0553-1.59391.30799.40346.56343.73801.87174,1.14186.35083-.52529.65919-.98706,1.01311-1.51703.31086.40096.56736.73175.86564,1.11645.35138-.47371.67982-.91649,1.02148-1.37711.31058.37958.56824.6945.57698.70519,1.10669-.40572,2.0475-.62882,2.85966-1.0823.82479-.46055,2.12337-.05608,2.49653-1.33599,1.17039.59861,1.57187-.88147,2.59835-.96054.82095-.06324,1.60763-.79587,2.37404-1.28675.95658-.61265,1.95383-1.1965,2.79157-1.9505.87975-.79186,1.61859-1.74838,2.36923-2.67335.69966-.86217,1.79969-1.47216,1.96493-2.82931-1.0609.80495-2.01133,1.52605-2.973,2.25571-.21806-.15885-.45403-.33068-.74675-.5439-.32312.50193-.62625.97273-.93068,1.44561-.28611-.1321-.56255-.25973-.82826-.3824-.36581.57392-.71992,1.12944-1.07769,1.69075-.33186-.26232-.56329-.44527-.80698-.63788-.49793.86715-.95094,1.65604-1.43684,2.50217-.44607-.61944-.7913-1.09884-1.17104-1.62613-.54382.89246-1.00816,1.65446-1.5097,2.47753-.44903-.62245-.77465-1.07379-1.14661-1.5894-.51236.83181-.97074,1.57592-1.48268,2.40708-.42345-.54828-.78367-1.01474-1.18376-1.53275-.63966.98297-1.21734,1.87063-1.86094,2.85961-.56126-.93426-1.03666-1.72561-1.62289-2.70153-.77201,1.31259-1.44517,2.45718-2.20103,3.74231-.65835-1.12604-1.18246-2.02242-1.83878-3.14491-.79542,1.31394-1.42074,2.34695-2.16296,3.573-.50579-.91256-.8395-1.58113-1.23432-2.2114-.59132-.94401-1.01593-.93942-1.60985.03212-.45098.73774-.83279,1.5178-1.35987,2.49035-.72788-1.22254-1.30718-2.19546-2.00601-3.36916-.7431,1.25111-1.31439,2.21298-1.96072,3.30115-.70179-1.15056-1.33785-2.1934-2.19978-3.60658-.80453,1.26286-1.40562,2.20638-2.11083,3.31336-.72603-1.21224-1.34446-2.24473-2.0865-3.48361-.71183,1.17383-1.25662,2.07221-1.87033,3.0843-.7586-1.26798-1.44438-2.41433-2.20908-3.69258-.61246,1.00756-1.08116,1.77866-1.62257,2.66938-.68865-1.06216-1.2599-1.9432-1.84979-2.8531-.43571.53918-.79972.98965-1.20023,1.48528-.53591-.84825-.98665-1.56172-1.49823-2.37149-.41286.60649-.72658,1.06737-1.1053,1.6237-.53211-.88297-1.00552-1.66853-1.52654-2.53304-.41633.5886-.76896,1.08715-1.17488,1.66107-.51925-.90114-.97754-1.69653-1.44151-2.50175-.31747.24512-.55774.43063-.83118.64176-.36017-.6058-.68121-1.14579-1.01394-1.7055-.28879.13333-.5583.25774-.84145.38849-.30674-.47065-.60719-.93168-.93808-1.43938-.30512.20611-.53725.36289-.76669.51784-1.50664-1.15928-3.00274-2.31038-4.49884-3.46148.33413.9176.8092,1.83628,1.41963,2.65391.63851.8553,1.48985,1.55514,2.1032,2.42511,1.79322,2.54324,4.74952,3.48631,7.13956,5.19854.19109.13694.69444.16237,1.04434.48871.27001.2518,1.10836.10682,1.18376.31928.41031,1.15665,1.62817.84768,2.34291,1.14133.95214.39119,1.94138.6791,2.77802,1.36394.25058-.32359.47508-.61349.74666-.9642.35254.47624.68171.92098,1.02093,1.37924.29647-.37556.55404-.70186.86134-1.09118.37812.53927.69633.99315,1.02907,1.46782.30179-.39641.55473-.72874.85176-1.11892.40287.59082.74102,1.08675,1.1053,1.62109.38191-.4636.69161-.83955,1.04993-1.27457.40236.59387.74009,1.09236,1.14305,1.68712.38478-.5627.69036-1.00958,1.06483-1.55716.42655.58619.76951,1.05754,1.17113,1.60948.36938-.51641.64226-.89787,1.00058-1.3988.39218.56402.70077,1.00778,1.04471,1.50238.38001-.48782.73399-.94219,1.10498-1.41839.42484.59026.76475,1.06257,1.16988,1.62549.40925-.64178.70989-1.1132,1.07588-1.68717.37631.52004.69476.9601,1.08481,1.49915Z"/>
        <path class="cls-1" d="m104.04133,95.67013c5.64444-8.25925,17.99273-13.9015,27.76566-12.78849,3.0187,6.36671.38529,11.05136-3.81472,13.2889-5.80606,3.09311-11.9401,4.26402-18.4308,2.52784-2.03048-.54312-3.84803-1.51343-5.52014-3.02825Zm15.23316,1.07053c1.67947-2.74387,1.52552-9.96078-.23277-11.78215-.97069,4.09272-1.12279,7.94513.23277,11.78215Z"/>
        <path class="cls-1" d="m17.87059,36.59902c-1.44866,1.73821-2.96578,3.42438-4.33384,5.22386-5.2347,6.88542-8.28255,14.76943-10.20443,23.1073-1.24503,5.40144-1.91553,10.90129-1.88705,16.46117.02651,5.17301.69097,10.28484,1.54497,15.37793.10836.64625.01032,1.32666.01286,1.99123.00372.98074.03282,1.89473.90253,2.6507.45759.39778.67434,1.13352.87501,1.75686,2.87555,8.93219,7.06643,17.18696,12.6842,24.70858,6.32275,8.46554,13.94414,15.55722,22.71571,21.42832.30818.20624.61237.41841,1.24329.8501-.9619-.12185-1.54893-.19621-2.13595-.27057-.06717-.10204-.11176-.23628-.20479-.30135-2.27916-1.59458-4.60963-3.12059-6.83023-4.79251-1.41121-1.06247-2.66068-2.33979-3.98266-3.52077-1.73475-1.68118-3.46949-3.36235-5.20426-5.04351-1.77495-2.16567-3.35493-4.53661-5.36948-6.45001-3.21044-3.0493-5.27969-6.8269-7.32247-10.6042-4.36018-8.06241-7.74666-16.52288-9.22597-25.62502-1.17522-7.231-1.5616-14.48902-.62102-21.81185.62713-4.88257,1.56569-9.66931,3.19879-14.30217.58996-1.67367,1.4933-3.23688,2.25365-4.8505.36845-.44358.85912-.83235,1.08643-1.33921,2.23233-4.97832,5.28327-9.3984,9.03344-13.34035.49756-.52301,1.17638-.87359,1.77127-1.30403ZM.90897,74.69603c-.05354.00007-.10709.00015-.16063.00022v11.39568c.05354-.00006.10709-.00012.16063-.00016v-11.39574Z"/>
        <path class="cls-1" d="m48.92774,155.90823c.41563.08669.85218.11865,1.24376.26835,5.04358,1.92804,10.08157,3.87097,15.11715,5.81992.21062.08153.38427.25849.57518.39098-1.8027-.50653-3.65134-.89057-5.39839-1.54553-3.45987-1.29712-6.86756-2.7344-10.28594-4.14017-.44996-.18503-.83608-.5252-1.25176-.79354Z"/>
        <path class="cls-1" d="m23.06595,136.22637c1.73477,1.68117,3.46952,3.36233,5.20426,5.04351-.38721-.16574-.88037-.23232-1.14391-.51383-1.38542-1.47997-2.71282-3.01425-4.06035-4.52968Z"/>
        <path class="cls-1" d="m33.97453,119.55206c1.09157,1.00912,2.21833,1.98302,3.2691,3.033,7.69707,7.69156,16.69656,13.4426,26.62959,17.75995,8.1678,3.55012,16.70567,5.75676,25.54348,6.93171,6.97844.92774,13.97354,1.11887,20.95832.61913,8.67253-.6205,17.35177-1.60558,25.24544-5.64114,3.56668-1.82342,6.84628-4.20807,10.25874-6.33389.31336-.1952.64577-.35978.96935-.53858.04506.05031.08997.10072.1348.15123-.15122.19458-.27168.4272-.45819.57819-5.08323,4.1159-10.72382,7.22166-16.95348,9.21932-5.78566,1.8553-11.77824,2.55024-17.80066,3.07112-10.05104.86932-20.04189.37922-29.90234-1.69687-12.74986-2.68447-24.5417-7.66033-35.12754-15.36238-4.28804-3.11989-8.3174-6.52023-11.8764-10.45818-.35406-.39173-.57324-.90536-.855-1.36242,0,0-.0352.0298-.0352.02981Z"/>
      </g>
    </g>
  </g>
</svg>